<svg version="1" xmlns="http://www.w3.org/2000/svg" width="1440" height="1440" viewBox="0 0 1080.000000 1080.000000"><path d="M168 1C109.7 5.5 57 37.8 27 87.5c-13 21.5-20.6 42.3-24.7 68C.6 165.9.5 187 .5 541v374.5l2.3 12.8c9.5 52.6 38.9 96.3 83.7 124.4 2.8 1.8 11.1 6.1 18.5 9.7 15.2 7.4 31.6 12.5 49 15.3 11 1.7 26.8 1.8 386.5 1.8h375l13.5-2.3c68.8-12 125.1-62.7 143.9-129.7 1.6-5.5 3.7-15 4.7-21 1.8-10.6 1.9-24.2 1.9-385.5 0-403.5.3-380.1-5.2-403-7.9-33-28.7-68-53.5-90-27.2-24.1-53.7-37.3-89.8-44.8L918.5.6 548 .4C344.2.4 173.2.6 168 1zm754.9 91.8c15.7 4.9 26.7 10.9 37.9 20.7 10.9 9.7 20.8 25.7 25.9 42l2.8 9v749l-2.3 8.5c-8.5 32.3-32.9 56.6-65.2 65.2l-8.5 2.3H540c-358.8 0-373.8-.1-381-1.8-9.7-2.4-27.8-11.4-35.7-17.7-13.2-10.6-24.4-27.6-30-45.5l-2.8-9-.3-371.5c-.2-259.2.1-373.6.8-378.5 5-32.5 30.4-62 61.7-71.5 3.9-1.2 9.3-2.5 12-3 2.6-.4 172.7-.7 377.8-.6l373 .1 7.4 2.3z"/><path d="M333.7 380.4c-6.3 1.7-9.6 4.3-12.7 9.7l-2.5 4.4-.3 143c-.2 102.2 0 144.3.8 147.5 1.5 5.8 5.1 10.5 10.3 13.3l4.2 2.2h179l4.5-2.5c9.2-5.2 11.3-11.4 10.8-33-.3-14.3-.5-16-2.8-20.4-1.9-3.7-3.8-5.6-8-8l-5.5-3.1-57.2-.3-57.2-.3-.3-118.2c-.3-111.3-.4-118.4-2.1-122.2-2.3-5.1-5.2-8.2-10.2-10.8-3.7-2-5.8-2.2-25-2.4-15.3-.2-22.3.1-25.8 1.1zM562.7 380.4c-6.3 1.7-9.6 4.3-12.7 9.7l-2.5 4.4-.3 143c-.2 102.2 0 144.3.8 147.5 1.5 5.8 5.1 10.5 10.3 13.3 4 2.1 5.3 2.2 28.3 2.2h24.1l4.8-3c3.5-2.1 5.6-4.5 7.4-8l2.6-4.9.3-41.3.3-41.3h28.2c15.5 0 32.4-.5 37.5-1 48.5-5.1 82.9-38.2 91.7-88.1 1.9-10.8 1.9-33.8 0-45.4-6.3-39.1-30.9-70-65.1-81.9-16.9-5.9-16.5-5.9-86.4-6.2-51.6-.3-65.5-.1-69.3 1zM680.3 449c12 3.7 20.8 14.4 23.8 28.9 1.7 8.2.7 24.3-2 31.2-3.2 8.4-7.8 14.7-13.5 18.5-8.4 5.5-14 6.4-39.8 6.4H626v-87h23.9c21.1 0 24.6.2 30.4 2z"/></svg>